<svg id="Layer_1" data-name="Layer 1" xmlns="http://www.w3.org/2000/svg" viewBox="0 0 400 400">
  <defs>
    <style>
      .cls-1 {
        fill: #fff;
      }
    </style>
  </defs>
  <g>
    <path d="M113,146H513V546H113ZM298.14,455.71H183.26c-.13-1.28-.28-2.1-.28-2.92q0-81.26,0-162.52c0-3.64,1.39-4.46,4.7-4.45q52.74.14,105.49,0c4.11,0,5,1.51,5,5.26-.2,10,.14,20-.15,30-.12,4.22,1.61,4.93,5.27,5s5-1,4.92-4.79c-.21-12.17-.06-24.34-.06-36.51,0-8-1-9-8.89-9q-58.76,0-117.5.06c-7.63,0-8.64,1-8.64,8.68q0,86.51,0,173c0,7.25,1.23,8.5,8.36,8.51q59,0,118,0c7.26,0,8.56-1.24,8.56-8.3q0-45.51,0-91c0-1.78-.18-3.55-.28-5.36h-9.61ZM258.77,263c7.27,5.42,8.16,5.27,12.13-1.79,10.65-18.93,28.72-28,49.93-24.27,19.79,3.44,33,15.62,41.57,33.29,3.11,6.44,5.83,7.19,10.74,2.43,11.64-11.27,30.65-6.29,33.37,9.82,1.62,9.63,5.57,13.34,14.39,16.14,13.37,4.24,20.77,14.63,21.9,28.81,1,13.17-3.49,24-14.88,31.22A44.6,44.6,0,0,1,403.35,366c-23-.06-46,0-69,0-1.94,0-3.87.19-5.89.3V376h6.29c23,0,46,.44,69-.22a65.34,65.34,0,0,0,23.11-5.18c18.1-7.7,27-22.94,26.24-42.56-.67-18.16-11.63-33.12-29.51-39.53-3.95-1.41-5.74-3.27-6.6-7.43-3-14.37-13.87-24.15-28.28-24.49-6.24-.15-12.54,2.23-19.61,3.61-6.83-10.94-16.15-21-28.76-27.51a58.1,58.1,0,0,0-40.75-5.18C279.54,232.07,266.88,244.9,258.77,263Zm-55.42,82.51c1.37.15,2.34.36,3.3.36q78.51.06,157,.12c3.08,0,4.41-.78,4.52-4.18.14-4.32-.84-6.08-5.7-6.07-51.34.2-102.68.15-154,.19-1.61,0-3.23.21-5.11.34Zm59.34,21h-59.3v9.14h59.3Zm-15.44-50.6c1.7-8.48,1.22-10-3.29-10-12.32-.09-24.64.11-37-.08-4.12-.06-4,2.27-4,5.12s.09,5.09,4.11,5c10.48-.22,21-.06,31.47-.06Zm-9.55,80.5H203.41v9.25H237.7ZM390.58,346h0c3,0,6-.13,8.95,0,4,.22,3.63-2.44,3.56-5-.07-2.36.75-5.25-3.33-5.18-6.13.1-12.28-.13-18.4.18-1.15.05-3,1.85-3.17,3.05-.95,6.27-.3,6.86,5.92,6.89ZM277.69,396.05H260.54c-8.19,0-8.26.1-7.27,8.47,0,.3.28.57.59,1.18h23.83Z" transform="translate(-113 -146)"/>
    <path class="cls-1" d="M298.14,455.71V361.4h9.61c.1,1.81.28,3.58.28,5.36q0,45.5,0,91c0,7.06-1.3,8.3-8.56,8.3q-59,0-118,0c-7.13,0-8.36-1.26-8.36-8.51q0-86.51,0-173c0-7.64,1-8.68,8.64-8.68q58.76-.06,117.5-.06c7.91,0,8.88,1,8.89,9,0,12.17-.15,24.34.06,36.51.07,3.83-1.3,4.82-4.92,4.79s-5.39-.74-5.27-5c.29-10-.05-20,.15-30,.07-3.75-.85-5.28-5-5.26q-52.76.19-105.49,0c-3.31,0-4.71.81-4.7,4.45q.12,81.26,0,162.52c0,.82.15,1.64.28,2.92Z" transform="translate(-113 -146)"/>
    <path class="cls-1" d="M258.77,263c8.11-18.14,20.77-31,40.81-35.52a58.1,58.1,0,0,1,40.75,5.18c12.61,6.52,21.93,16.57,28.76,27.51,7.07-1.38,13.37-3.76,19.61-3.61,14.41.34,25.31,10.12,28.28,24.49.86,4.16,2.65,6,6.6,7.43,17.88,6.41,28.84,21.37,29.51,39.53.72,19.62-8.14,34.86-26.24,42.56a65.34,65.34,0,0,1-23.11,5.18c-23,.66-46,.23-69,.22h-6.29v-9.73c2-.11,3.95-.3,5.89-.3,23,0,46-.08,69,0a44.6,44.6,0,0,0,24.57-7.27c11.39-7.26,15.92-18.05,14.88-31.22-1.13-14.18-8.53-24.57-21.9-28.81-8.82-2.8-12.77-6.51-14.39-16.14-2.72-16.11-21.73-21.09-33.37-9.82-4.91,4.76-7.63,4-10.74-2.43-8.55-17.67-21.78-29.85-41.57-33.29-21.21-3.7-39.28,5.34-49.93,24.27C266.93,268.31,266,268.46,258.77,263Z" transform="translate(-113 -146)"/>
    <path class="cls-1" d="M203.35,345.55v-9.24c1.88-.13,3.5-.34,5.11-.34,51.35,0,102.69,0,154-.19,4.86,0,5.84,1.75,5.7,6.07-.11,3.4-1.44,4.18-4.52,4.18q-78.51-.12-157-.12C205.69,345.91,204.72,345.7,203.35,345.55Z" transform="translate(-113 -146)"/>
    <path class="cls-1" d="M262.69,366.51v9.14h-59.3v-9.14Z" transform="translate(-113 -146)"/>
    <path class="cls-1" d="M247.25,315.91h-8.67c-10.49,0-21-.16-31.47.06-4,.08-4.15-2.05-4.11-5s-.12-5.18,4-5.12c12.32.19,24.64,0,37,.08C248.47,306,249,307.43,247.25,315.91Z" transform="translate(-113 -146)"/>
    <path class="cls-1" d="M237.7,396.41v9.25H203.41v-9.25Z" transform="translate(-113 -146)"/>
    <path class="cls-1" d="M390.58,346h-6.47c-6.22,0-6.87-.62-5.92-6.89.18-1.2,2-3,3.17-3.05,6.12-.31,12.27-.08,18.4-.18,4.08-.07,3.26,2.82,3.33,5.18.07,2.52.39,5.18-3.56,5-3-.16-6,0-8.95,0Z" transform="translate(-113 -146)"/>
    <path class="cls-1" d="M277.69,396.05v9.65H253.86c-.31-.61-.56-.88-.59-1.18-1-8.37-.92-8.46,7.27-8.47Z" transform="translate(-113 -146)"/>
  </g>
</svg>
